<svg height="49.356" width="47.642" xmlns="http://www.w3.org/2000/svg"><path d="m178.237 119.578c0-6.128-.133-12.263.057-18.382a6.856 6.856 0 0 1 4.485-6.421 32.9 32.9 0 0 1 9.568-2.427 190.909 190.909 0 0 1 20.336.116 28.452 28.452 0 0 1 8.756 2.429 6.139 6.139 0 0 1 3.848 5.582q.429 10.529.546 21.069c.031 2.742-.407 5.486-.468 8.232-.136 6.059-2.942 9.919-8.919 10.98a68.7 68.7 0 0 1 -12.018.7c-4.729 0-9.472-.19-14.18-.625a23.652 23.652 0 0 1 -6.953-1.849 7.095 7.095 0 0 1 -4.216-6.028c-.505-4.435-.842-13.376-.842-13.376zm3.564.626c.338 3.883.008 7.789.4 11.666.182 1.788.869 3.5 2.622 4.2a20.071 20.071 0 0 0 5.676 1.483c4.9.4 9.83.669 14.749.717a59.005 59.005 0 0 0 10.306-.673c4.242-.715 6.261-3.1 6.469-6.941.484-8.94 1.267-17.867.449-26.84-.428-4.689-1.542-6.346-6.1-7.567a11.956 11.956 0 0 0 -2.64-.468c-6.459-.222-12.926-.653-19.378-.478-3.311.089-6.633 1.138-9.872 2.047-1.818.511-2.784 1.895-2.736 4.077.136 6.256.051 12.518.051 18.779zm19.007 7.311c-6.219-.148-10.635-3.928-11.252-9.63-.585-5.407 3.568-10.943 9.349-12.46 8.1-2.126 15.556 3.548 14.752 11.226-.646 6.137-6.418 11.018-12.849 10.865zm-.554-3.253a10.318 10.318 0 0 0 7.061-2.391c4.324-3.637 4.054-9.549-.544-12.554-3.112-2.033-8.484-1.133-11.469 1.923a7.625 7.625 0 0 0 -1.9 8.454 7.535 7.535 0 0 0 6.848 4.567zm15.5-23.308c-1.051-.3-2.384 1.13-2.31 2.278.077 1.193.8 2.083 1.962 1.784.854-.216 1.535-1.117 2.731-2.057-1.086-.959-1.643-1.793-2.381-2.006z" fill="#fff" transform="translate(-178.192 -92.132)"/></svg>